<svg width="38" height="38" viewBox="0 0 38 38" fill="none" xmlns="http://www.w3.org/2000/svg">
<path d="M30.9172 35.8889H7.08277C6.84712 35.8903 6.6135 35.8453 6.39526 35.7564C6.17701 35.6675 5.97842 35.5365 5.81081 35.3708C5.6432 35.2052 5.50985 35.0081 5.4184 34.7909C5.32694 34.5738 5.27915 34.3407 5.27777 34.105V7.0617C5.28404 6.80059 5.34561 6.54377 5.45841 6.30819C5.57122 6.07262 5.73271 5.86365 5.93221 5.69506C6.13172 5.52648 6.3647 5.40213 6.61579 5.33021C6.86689 5.25828 7.13038 5.24042 7.38888 5.27781H9.49999V7.38892H7.38888V33.7778H30.6111V7.38892H28.5V5.27781H30.875C31.1142 5.27077 31.3523 5.31163 31.5755 5.39799C31.7986 5.48435 32.0022 5.61447 32.1743 5.78068C32.3465 5.9469 32.4836 6.14585 32.5777 6.36585C32.6718 6.58584 32.7209 6.82243 32.7222 7.0617V34.105C32.7208 34.3407 32.673 34.5738 32.5816 34.7909C32.4901 35.0081 32.3568 35.2052 32.1892 35.3708C32.0216 35.5365 31.823 35.6675 31.6047 35.7564C31.3865 35.8453 31.1529 35.8903 30.9172 35.8889Z" fill="white"/>
<path d="M17.5856 27.1911L11.9278 21.5333C11.7562 21.3301 11.6676 21.0697 11.6797 20.8041C11.6918 20.5384 11.8037 20.2872 11.9931 20.1005C12.1824 19.9138 12.4353 19.8054 12.7011 19.7971C12.9668 19.7888 13.226 19.881 13.4267 20.0555L17.5856 24.2144L26.7056 15.0944C26.9075 14.9215 27.1672 14.8311 27.4329 14.8414C27.6985 14.8516 27.9506 14.9618 28.1385 15.1497C28.3265 15.3377 28.4367 15.5897 28.4469 15.8554C28.4572 16.121 28.3668 16.3808 28.1939 16.5827L17.5856 27.1911Z" fill="white"/>
<path d="M27.4444 11.6111H10.5555V7.73717C10.5583 7.08574 10.8183 6.46179 11.279 6.00115C11.7396 5.54052 12.3636 5.28051 13.015 5.27773H14.9044C15.137 4.36951 15.6652 3.56452 16.4058 2.98966C17.1463 2.41481 18.0572 2.10278 18.9947 2.10278C19.9322 2.10278 20.8431 2.41481 21.5837 2.98966C22.3242 3.56452 22.8524 4.36951 23.085 5.27773H24.9744C25.6277 5.27772 26.2544 5.5365 26.7173 5.99744C27.1802 6.45837 27.4416 7.08392 27.4444 7.73717V11.6111ZM12.6667 9.49995H25.3333V7.73717C25.3333 7.64479 25.2966 7.55619 25.2313 7.49086C25.166 7.42554 25.0774 7.38884 24.985 7.38884H21.1111V6.33328C21.1111 5.77338 20.8887 5.23641 20.4928 4.8405C20.0969 4.44459 19.5599 4.22217 19 4.22217C18.4401 4.22217 17.9031 4.44459 17.5072 4.8405C17.1113 5.23641 16.8889 5.77338 16.8889 6.33328V7.38884H13.015C12.9692 7.38884 12.9239 7.39785 12.8817 7.41535C12.8394 7.43286 12.801 7.45852 12.7687 7.49086C12.7363 7.52321 12.7107 7.56161 12.6932 7.60387C12.6757 7.64613 12.6667 7.69143 12.6667 7.73717V9.49995Z" fill="white"/>
</svg>
