<svg width="35" height="35" viewBox="0 0 35 35" fill="none" xmlns="http://www.w3.org/2000/svg">
<path d="M0 6.1875C0 5.60734 0.230468 5.05094 0.640704 4.6407C1.05094 4.23047 1.60734 4 2.1875 4H32.8125C33.3927 4 33.9491 4.23047 34.3593 4.6407C34.7695 5.05094 35 5.60734 35 6.1875V10.5625C35 11.1427 34.7695 11.6991 34.3593 12.1093C33.9491 12.5195 33.3927 12.75 32.8125 12.75V29.1562C32.8125 30.6067 32.2363 31.9977 31.2107 33.0232C30.1852 34.0488 28.7942 34.625 27.3438 34.625H7.65625C6.20585 34.625 4.81485 34.0488 3.78926 33.0232C2.76367 31.9977 2.1875 30.6067 2.1875 29.1562V12.75C1.60734 12.75 1.05094 12.5195 0.640704 12.1093C0.230468 11.6991 0 11.1427 0 10.5625V6.1875ZM4.375 12.75V29.1562C4.375 30.0265 4.7207 30.8611 5.33606 31.4764C5.95141 32.0918 6.78601 32.4375 7.65625 32.4375H27.3438C28.214 32.4375 29.0486 32.0918 29.6639 31.4764C30.2793 30.8611 30.625 30.0265 30.625 29.1562V12.75H4.375ZM32.8125 6.1875H2.1875V10.5625H32.8125V6.1875ZM10.9375 18.2188C10.9375 17.9287 11.0527 17.6505 11.2579 17.4454C11.463 17.2402 11.7412 17.125 12.0312 17.125H22.9688C23.2588 17.125 23.537 17.2402 23.7421 17.4454C23.9473 17.6505 24.0625 17.9287 24.0625 18.2188C24.0625 18.5088 23.9473 18.787 23.7421 18.9921C23.537 19.1973 23.2588 19.3125 22.9688 19.3125H12.0312C11.7412 19.3125 11.463 19.1973 11.2579 18.9921C11.0527 18.787 10.9375 18.5088 10.9375 18.2188Z" fill="white"/>
</svg>
