<svg width="24" height="24" viewBox="0 0 24 24" fill="none" xmlns="http://www.w3.org/2000/svg">
<path d="M13 18.7334H11.0667C10.7333 18.7334 10.4667 18.5334 10.4 18.2L10.0667 17L9.79999 16.8667L8.73332 17.4667C8.46666 17.6 8.13332 17.6 7.93332 17.3334L6.53332 15.9334C6.33332 15.7334 6.26666 15.4 6.39999 15.1334L6.99999 14.0667L6.86666 13.8L5.66666 13.4667C5.39999 13.4 5.13332 13.1334 5.13332 12.8V10.8667C5.13332 10.5333 5.33332 10.2667 5.66666 10.2L6.86666 9.86668L6.99999 9.60002L6.39999 8.53335C6.26666 8.26668 6.26666 7.93335 6.53332 7.73335L7.93332 6.33335C8.13332 6.13335 8.46666 6.06668 8.73332 6.20002L9.79999 6.80002L10.0667 6.66668L10.4 5.46668C10.4667 5.20002 10.7333 4.93335 11.0667 4.93335H13C13.3333 4.93335 13.6 5.13335 13.6667 5.46668L14 6.66668L14.2667 6.80002L15.3333 6.20002C15.6 6.06668 15.9333 6.06668 16.1333 6.33335L17.5333 7.73335C17.7333 7.93335 17.8 8.26668 17.6667 8.53335L17.0667 9.60002L17.2 9.86668L18.4 10.2C18.6667 10.2667 18.9333 10.5333 18.9333 10.8667V12.8C18.9333 13.1334 18.7333 13.4 18.4 13.4667L17.2 13.8L17.0667 14.0667L17.6667 15.1334C17.8 15.4 17.8 15.7334 17.5333 15.9334L16.1333 17.3334C15.9333 17.5334 15.6 17.6 15.3333 17.4667L14.2667 16.8667L14 17L13.6667 18.2C13.5333 18.5334 13.2667 18.7334 13 18.7334ZM11.5333 17.4H12.4667L12.8 16L13.1333 15.8667C13.4 15.8 13.6 15.6667 13.8667 15.6L14.2 15.4L15.4667 16.1334L16.1333 15.4667L15.4 14.2L15.6 13.8667C15.7333 13.6667 15.8 13.4 15.8667 13.1334L16 12.8L17.4 12.4667V11.5333L16 11.2L15.8667 10.8667C15.8 10.6 15.6667 10.4 15.6 10.1333L15.4 9.80002L16.1333 8.53335L15.4667 7.86668L14.2 8.60002L13.8667 8.40002C13.6667 8.26668 13.4 8.20002 13.1333 8.13335L12.8 8.00002L12.4667 6.60002H11.5333L11.2 8.00002L10.8667 8.13335C10.6 8.20002 10.4 8.33335 10.1333 8.40002L9.79999 8.60002L8.53332 7.86668L7.86666 8.53335L8.59999 9.80002L8.39999 10.1333C8.26666 10.3334 8.19999 10.6 8.13332 10.8667L7.99999 11.2L6.59999 11.5333V12.4667L7.99999 12.8L8.13332 13.1334C8.19999 13.4 8.33332 13.6 8.39999 13.8667L8.59999 14.2L7.86666 15.4667L8.53332 16.1334L9.79999 15.4L10.1333 15.6C10.3333 15.7334 10.6 15.8 10.8667 15.8667L11.2 16L11.5333 17.4Z" fill="#696969"/>
<path d="M12 14.8666C10.4 14.8666 9.13332 13.6 9.13332 12C9.13332 10.4 10.4 9.1333 12 9.1333C13.6 9.1333 14.8667 10.4 14.8667 12C14.8667 13.6 13.6 14.8666 12 14.8666ZM12 10.4666C11.1333 10.4666 10.4667 11.1333 10.4667 12C10.4667 12.8666 11.1333 13.5333 12 13.5333C12.8667 13.5333 13.5333 12.8666 13.5333 12C13.5333 11.1333 12.8667 10.4666 12 10.4666Z" fill="#696969"/>
<path d="M12 1.33337C11.6 1.33337 11.3333 1.60004 11.3333 2.00004C11.3333 2.40004 11.6 2.66671 12 2.66671C17.1333 2.66671 21.3333 6.86671 21.3333 12C21.3333 17.1334 17.1333 21.3334 12 21.3334C6.86667 21.3334 2.66667 17.1334 2.66667 12C2.66667 10.1334 3.2 8.33337 4.26667 6.80004V7.60004C4.26667 8.00004 4.53334 8.26671 4.93334 8.26671C5.33334 8.26671 5.6 8.00004 5.6 7.60004V4.26671H2.26667C1.86667 4.26671 1.6 4.53337 1.6 4.93337C1.6 5.33337 1.86667 5.60004 2.26667 5.60004H3.46667C2.06667 7.40004 1.33334 9.66671 1.33334 12C1.33334 17.8667 6.13334 22.6667 12 22.6667C17.8667 22.6667 22.6667 17.8667 22.6667 12C22.6667 6.13337 17.8667 1.33337 12 1.33337Z" fill="#696969"/>
</svg>
