<svg width="47" height="47" viewBox="0 0 47 47" fill="none" xmlns="http://www.w3.org/2000/svg">
<path d="M27.3704 7.111C27.3704 5.78378 26.295 4.70837 24.9678 4.70837H22.2017C20.8726 4.70837 19.7972 5.78378 19.7972 7.111C19.7972 8.20534 19.0474 9.14443 18.0269 9.54581C17.866 9.61019 17.705 9.67835 17.5479 9.74651C16.5425 10.182 15.3478 10.0494 14.5716 9.27507C14.1211 8.82486 13.5102 8.57196 12.8733 8.57196C12.2364 8.57196 11.6255 8.82486 11.175 9.27507L9.21727 11.2328C8.76706 11.6833 8.51416 12.2942 8.51416 12.9311C8.51416 13.568 8.76706 14.1789 9.21727 14.6294V14.6294C9.99353 15.4056 10.1261 16.5984 9.68681 17.6057C9.6178 17.7642 9.55152 17.9239 9.48801 18.0847C9.08663 19.1052 8.14754 19.855 7.0532 19.855C5.72598 19.855 4.65057 20.9304 4.65057 22.2576V25.0256C4.65057 26.3528 5.72598 27.4282 7.0532 27.4282C8.14754 27.4282 9.08663 28.178 9.48801 29.1985C9.55239 29.3594 9.62055 29.5204 9.68681 29.6775C10.1242 30.6829 9.99164 31.8776 9.21727 32.6538C8.76706 33.1043 8.51416 33.7152 8.51416 34.3521C8.51416 34.989 8.76706 35.5999 9.21727 36.0504L11.175 38.0081C11.6255 38.4583 12.2364 38.7112 12.8733 38.7112C13.5102 38.7112 14.1211 38.4583 14.5716 38.0081C15.3478 37.2319 16.5406 37.0993 17.5479 37.5367C17.705 37.6067 17.866 37.673 18.0269 37.7374C19.0474 38.1388 19.7972 39.0779 19.7972 40.1722C19.7972 41.4994 20.8726 42.5748 22.1998 42.5748H24.9678C26.295 42.5748 27.3704 41.4994 27.3704 40.1722C27.3704 39.0779 28.1202 38.1388 29.1407 37.7355C29.3016 37.673 29.4626 37.6067 29.6197 37.5386C30.6251 37.0993 31.8198 37.2338 32.5941 38.0081C32.8172 38.2313 33.0821 38.4084 33.3737 38.5292C33.6653 38.65 33.9778 38.7122 34.2934 38.7122C34.609 38.7122 34.9215 38.65 35.213 38.5292C35.5046 38.4084 35.7695 38.2313 35.9926 38.0081L37.9503 36.0504C38.4005 35.5999 38.6534 34.989 38.6534 34.3521C38.6534 33.7152 38.4005 33.1043 37.9503 32.6538V32.6538C37.1741 31.8776 37.0415 30.6848 37.4789 29.6775C37.5489 29.5204 37.6152 29.3594 37.6796 29.1985C38.081 28.178 39.0201 27.4282 40.1144 27.4282C41.4416 27.4282 42.517 26.3528 42.517 25.0256V22.2595C42.517 20.9323 41.4416 19.8568 40.1144 19.8568C39.0201 19.8568 38.081 19.1071 37.6777 18.0866C37.6143 17.9258 37.548 17.7661 37.4789 17.6076C37.0434 16.6022 37.176 15.4075 37.9503 14.6313C38.4005 14.1807 38.6534 13.5699 38.6534 12.933C38.6534 12.296 38.4005 11.6852 37.9503 11.2347L35.9926 9.27696C35.5421 8.82675 34.9312 8.57385 34.2943 8.57385C33.6574 8.57385 33.0465 8.82675 32.596 9.27696V9.27696C31.8198 10.0532 30.627 10.1858 29.6197 9.7484C29.4612 9.67874 29.3015 9.61183 29.1407 9.54771C28.1202 9.14443 27.3704 8.20534 27.3704 7.11289V7.111Z" stroke="#696969" stroke-width="2"/>
<path d="M31.1571 23.6416C31.1571 25.6502 30.3592 27.5765 28.9389 28.9968C27.5187 30.417 25.5924 31.2149 23.5838 31.2149C21.5752 31.2149 19.6489 30.417 18.2287 28.9968C16.8084 27.5765 16.0105 25.6502 16.0105 23.6416C16.0105 21.6331 16.8084 19.7068 18.2287 18.2865C19.6489 16.8663 21.5752 16.0684 23.5838 16.0684C25.5924 16.0684 27.5187 16.8663 28.9389 18.2865C30.3592 19.7068 31.1571 21.6331 31.1571 23.6416V23.6416Z" stroke="#696969" stroke-width="2"/>
</svg>
