<svg width="260" height="98" viewBox="0 0 260 98" fill="none" xmlns="http://www.w3.org/2000/svg">
<path d="M27.1475 10.8933C2.44062 5.87752 -0.141183 23.8506 1.65627 33.4641C5.74141 33.4641 11.4606 38.6471 1.65627 59.3789C-8.14805 80.1106 27.9645 88.6374 47.2464 90.3093C56.7239 87.3835 94.0129 84.2068 167.349 94.9071C240.686 105.607 259.673 85.9902 260 74.8441C257.222 56.7317 243.627 17.4974 211.469 5.45955C179.311 -6.57825 140.878 4.06628 125.681 10.8933C124.864 13.2618 118.132 19.4201 97.7386 25.1046C72.2474 32.2102 58.0311 17.163 27.1475 10.8933Z" fill="#4C6FC2"/>
<path d="M39.5 72.35C36.9667 72.35 34.8833 71.75 33.25 70.55C31.65 69.35 30.4667 67.8 29.7 65.9C28.9667 64 28.6 62.0333 28.6 60C28.6 57.3667 29 54.7333 29.8 52.1C30.6 49.4333 31.7 46.9 33.1 44.5C34.5333 42.1 36.15 39.9667 37.95 38.1C39.75 36.2333 41.6667 34.7667 43.7 33.7C45.7667 32.6 47.8167 32.05 49.85 32.05C51.3167 32.05 52.55 32.4 53.55 33.1C54.55 33.7667 55.05 34.9333 55.05 36.6C55.05 37.6 54.8667 38.7167 54.5 39.95C54.1667 41.1833 53.7 42.3833 53.1 43.55C52.5333 44.6833 51.8833 45.6167 51.15 46.35C50.4167 47.0833 49.6667 47.45 48.9 47.45C48.5667 47.45 48.2167 47.3333 47.85 47.1C47.4833 46.8667 47.15 46.4667 46.85 45.9C47.35 45.3333 47.9167 44.65 48.55 43.85C49.1833 43.0167 49.7833 42.15 50.35 41.25C50.9167 40.3167 51.3833 39.4167 51.75 38.55C52.1167 37.65 52.3 36.8667 52.3 36.2C52.3 35.6 52.1333 35.1333 51.8 34.8C51.4667 34.4333 50.8833 34.25 50.05 34.25C48.5833 34.25 47.0667 34.8 45.5 35.9C43.9667 37 42.4833 38.4833 41.05 40.35C39.6167 42.1833 38.3167 44.25 37.15 46.55C36.0167 48.8167 35.1167 51.1667 34.45 53.6C33.7833 56 33.45 58.2833 33.45 60.45C33.45 62.05 33.6833 63.5833 34.15 65.05C34.65 66.4833 35.4333 67.65 36.5 68.55C37.5667 69.4833 38.9667 69.95 40.7 69.95C42.5 69.95 44.2833 69.45 46.05 68.45C47.85 67.45 49.4833 66.1333 50.95 64.5C52.45 62.8667 53.65 61.1167 54.55 59.25L55.85 60.1C54.6833 62.3333 53.2833 64.3833 51.65 66.25C50.0167 68.0833 48.1667 69.55 46.1 70.65C44.0667 71.7833 41.8667 72.35 39.5 72.35ZM56.1672 70.35C55.0672 70.35 54.1172 69.9833 53.3172 69.25C52.4839 68.5167 52.0672 67.4167 52.0672 65.95C52.0672 64.7833 52.3339 63.5167 52.8672 62.15C53.4005 60.7833 54.1339 59.4333 55.0672 58.1C56.0005 56.7667 57.0672 55.5667 58.2672 54.5C59.4672 53.4 60.7505 52.5167 62.1172 51.85C63.4839 51.1833 64.8505 50.85 66.2172 50.85C67.6505 50.85 68.8672 51.2167 69.8672 51.95C70.8672 52.6833 71.3672 53.65 71.3672 54.85C71.3672 55.75 71.0505 56.4 70.4172 56.8C69.7839 57.2 69.0339 57.3167 68.1672 57.15C68.2339 56.85 68.2839 56.55 68.3172 56.25C68.3839 55.95 68.4172 55.6333 68.4172 55.3C68.4172 54.6333 68.2839 54.0333 68.0172 53.5C67.7505 52.9667 67.1839 52.7 66.3172 52.7C65.3839 52.7 64.4339 53.0167 63.4672 53.65C62.5005 54.2833 61.5672 55.1167 60.6672 56.15C59.8005 57.15 59.0172 58.2667 58.3172 59.5C57.6172 60.7 57.0672 61.8833 56.6672 63.05C56.2672 64.2167 56.0672 65.2667 56.0672 66.2C56.0672 67.2667 56.4505 67.8 57.2172 67.8C57.9839 67.8 58.8339 67.4333 59.7672 66.7C60.7005 65.9333 61.6339 64.9833 62.5672 63.85C63.5339 62.7167 64.4505 61.5667 65.3172 60.4C66.1839 59.2 66.9339 58.1833 67.5672 57.35C67.6672 57.1833 67.8005 57.1 67.9672 57.1C68.1005 57.1333 68.3505 57.2167 68.7172 57.35C69.1172 57.45 69.4839 57.6167 69.8172 57.85C70.1505 58.0833 70.3172 58.3833 70.3172 58.75C70.3172 59.1833 70.0839 59.7833 69.6172 60.55C69.1505 61.2833 68.6672 62.0833 68.1672 62.95C67.7005 63.8167 67.4672 64.6167 67.4672 65.35C67.4672 65.7833 67.5839 66.2 67.8172 66.6C68.0505 66.9667 68.4339 67.15 68.9672 67.15C69.7672 67.15 70.8839 66.5667 72.3172 65.4C73.7839 64.2 75.2672 62.1833 76.7672 59.35L77.7172 60.3C76.4839 63.0333 74.9505 65.25 73.1172 66.95C71.2839 68.65 69.4339 69.5 67.5672 69.5C66.2005 69.5 65.1839 69.0667 64.5172 68.2C63.8505 67.3333 63.4839 66.4 63.4172 65.4V65.15C62.0839 66.75 60.8505 68.0167 59.7172 68.95C58.6172 69.8833 57.4339 70.35 56.1672 70.35ZM84.834 69.3C83.6007 69.3 82.6007 68.9667 81.834 68.3C81.0673 67.6667 80.684 66.8 80.684 65.7C80.684 64.7667 80.9173 63.7667 81.384 62.7C81.8507 61.6333 82.3173 60.5833 82.784 59.55C83.284 58.5167 83.534 57.6 83.534 56.8C83.534 56.0333 83.284 55.4 82.784 54.9C82.284 54.3667 81.7007 53.9333 81.034 53.6C80.3007 55.4333 79.4673 57.2167 78.534 58.95C77.634 60.65 76.9007 61.9833 76.334 62.95L75.584 61.5C76.0507 60.6333 76.6673 59.4 77.434 57.8C78.2007 56.2 78.934 54.4167 79.634 52.45C79.3007 52.1167 79.134 51.6667 79.134 51.1C79.134 50.2333 79.4007 49.4167 79.934 48.65C80.4673 47.8833 80.984 47.5 81.484 47.5C81.884 47.5 82.1673 47.7333 82.334 48.2C82.534 48.6333 82.634 48.9333 82.634 49.1C82.634 49.2667 82.5507 49.5667 82.384 50C82.2507 50.4333 82.1507 50.75 82.084 50.95C82.1173 51.3167 82.4007 51.6833 82.934 52.05C83.5007 52.3833 84.134 52.7833 84.834 53.25C85.534 53.7167 86.1507 54.3 86.684 55C87.2173 55.7 87.484 56.5833 87.484 57.65C87.484 58.6167 87.2673 59.6 86.834 60.6C86.4007 61.6 85.9673 62.5333 85.534 63.4C85.1007 64.2667 84.884 65.0167 84.884 65.65C84.884 66.1167 85.0007 66.4333 85.234 66.6C85.5007 66.7333 85.8007 66.8 86.134 66.8C86.934 66.8 87.7673 66.5667 88.634 66.1C89.5007 65.6 90.3507 64.9667 91.184 64.2C92.0173 63.4333 92.7507 62.6333 93.384 61.8C94.0173 60.9333 94.5007 60.15 94.834 59.45L96.034 60.35C95.4007 61.7833 94.484 63.2 93.284 64.6C92.084 65.9667 90.7507 67.1 89.284 68C87.8173 68.8667 86.334 69.3 84.834 69.3ZM90.948 82C90.548 82 90.1314 81.85 89.698 81.55C89.2314 81.25 88.9814 80.9833 88.948 80.75C89.7814 78.3167 90.498 76.2 91.098 74.4C91.6647 72.6333 92.148 70.95 92.548 69.35C92.948 67.7833 93.3147 66.15 93.648 64.45C93.948 62.7167 94.248 60.75 94.548 58.55C94.8814 56.3167 95.248 53.6333 95.648 50.5C95.7147 50.1 95.798 49.8167 95.898 49.65C95.998 49.45 96.3147 49.35 96.848 49.35C97.8814 49.35 98.6314 49.6333 99.098 50.2C99.5647 50.7333 99.798 51.3333 99.798 52C99.798 52.8 99.5647 54.3667 99.098 56.7C99.7314 55.7333 100.448 54.8167 101.248 53.95C102.081 53.0833 102.998 52.3833 103.998 51.85C104.998 51.2833 106.081 51 107.248 51C108.881 51 110.231 51.55 111.298 52.65C112.365 53.75 112.898 55.2 112.898 57C112.898 58.3 112.598 59.6833 111.998 61.15C111.431 62.5833 110.615 63.95 109.548 65.25C108.481 66.5167 107.198 67.55 105.698 68.35C104.198 69.1833 102.548 69.6 100.748 69.6C99.6814 69.6 98.8314 69.4667 98.198 69.2C97.5647 68.9333 97.248 68.6333 97.248 68.3C97.248 68.0667 97.3647 67.9333 97.598 67.9C97.8647 67.8333 98.148 67.8 98.448 67.8C100.015 67.7667 101.431 67.4333 102.698 66.8C103.998 66.1667 105.115 65.35 106.048 64.35C106.981 63.3167 107.698 62.2167 108.198 61.05C108.698 59.8833 108.948 58.7333 108.948 57.6C108.948 56.6 108.715 55.7333 108.248 55C107.815 54.2667 107.115 53.9 106.148 53.9C105.315 53.9 104.465 54.1667 103.598 54.7C102.765 55.2333 101.981 55.9167 101.248 56.75C100.515 57.55 99.8647 58.4 99.298 59.3C98.7314 60.1667 98.298 60.9333 97.998 61.6C97.3647 63.8 96.7814 65.9833 96.248 68.15C95.748 70.35 95.2647 72.3833 94.798 74.25C94.3314 76.1167 93.8647 77.7 93.398 79C92.898 80.3 92.3647 81.1833 91.798 81.65C91.5314 81.8833 91.248 82 90.948 82ZM120.202 70.2C118.069 70.2 116.419 69.6167 115.252 68.45C114.119 67.3167 113.552 65.8833 113.552 64.15C113.552 62.6833 113.919 61.1333 114.652 59.5C115.419 57.8333 116.436 56.2833 117.702 54.85C118.969 53.3833 120.369 52.2 121.902 51.3C123.436 50.4 124.969 49.95 126.502 49.95C127.369 49.95 128.186 50.1833 128.952 50.65C129.752 51.0833 130.152 51.9667 130.152 53.3C130.152 54.5667 129.786 55.75 129.052 56.85C128.319 57.95 127.336 58.9333 126.102 59.8C124.869 60.6667 123.502 61.3833 122.002 61.95C120.536 62.4833 119.052 62.8333 117.552 63C117.519 63.1333 117.486 63.2833 117.452 63.45C117.452 63.5833 117.452 63.8167 117.452 64.15C117.452 64.3167 117.469 64.6167 117.502 65.05C117.569 65.45 117.719 65.8833 117.952 66.35C118.186 66.8167 118.569 67.2167 119.102 67.55C119.636 67.8833 120.369 68.05 121.302 68.05C122.702 68.05 124.102 67.6667 125.502 66.9C126.936 66.1 128.269 65.05 129.502 63.75C130.769 62.45 131.819 61 132.652 59.4L133.652 60.2C132.752 62.2 131.586 63.95 130.152 65.45C128.752 66.95 127.186 68.1167 125.452 68.95C123.752 69.7833 122.002 70.2 120.202 70.2ZM118.102 61.15C118.969 61.05 119.936 60.75 121.002 60.25C122.069 59.75 123.086 59.1167 124.052 58.35C125.052 57.5833 125.869 56.75 126.502 55.85C127.136 54.9167 127.452 53.9833 127.452 53.05C127.452 52.6833 127.386 52.4333 127.252 52.3C127.119 52.1667 126.902 52.1 126.602 52.1C125.836 52.1 125.036 52.3833 124.202 52.95C123.369 53.4833 122.552 54.2 121.752 55.1C120.952 55.9667 120.236 56.9333 119.602 58C118.969 59.0667 118.469 60.1167 118.102 61.15ZM153.982 72.35C152.815 72.35 151.698 72.1833 150.632 71.85C149.598 71.55 148.698 70.8833 147.932 69.85C148.032 69.05 148.265 67.8833 148.632 66.35C149.032 64.8167 149.515 63.0833 150.082 61.15C150.648 59.1833 151.248 57.1667 151.882 55.1C152.515 53.0333 153.132 51.0667 153.732 49.2C154.365 47.3 154.915 45.65 155.382 44.25C155.882 42.8167 156.248 41.7833 156.482 41.15C156.582 40.8833 156.748 40.4833 156.982 39.95C157.215 39.4167 157.515 38.8667 157.882 38.3C158.248 37.7333 158.665 37.2667 159.132 36.9C159.632 36.5 160.165 36.3 160.732 36.3C161.298 36.3 161.932 36.5333 162.632 37C161.598 39.3333 160.548 41.9333 159.482 44.8C158.448 47.6333 157.448 50.5667 156.482 53.6C155.548 56.6 154.682 59.5333 153.882 62.4C153.115 65.2333 152.482 67.8333 151.982 70.2C152.248 70.3 152.615 70.3667 153.082 70.4C153.582 70.4667 154.048 70.5 154.482 70.5C156.648 70.5 158.715 69.9667 160.682 68.9C162.648 67.8667 164.448 66.4833 166.082 64.75C167.748 62.9833 169.198 61.0167 170.432 58.85C171.665 56.65 172.615 54.4 173.282 52.1C173.948 49.8 174.282 47.6 174.282 45.5C174.282 42.8 173.815 40.6167 172.882 38.95C171.982 37.25 170.732 36.0167 169.132 35.25C167.532 34.45 165.698 34.05 163.632 34.05C161.465 34.05 159.515 34.45 157.782 35.25C156.048 36.0167 154.682 37.0833 153.682 38.45C152.715 39.7833 152.232 41.3167 152.232 43.05C152.232 43.4167 152.265 43.8167 152.332 44.25C152.398 44.65 152.515 45.05 152.682 45.45C151.248 45.45 150.215 45.15 149.582 44.55C148.982 43.9167 148.682 43.15 148.682 42.25C148.682 41.0833 149.098 39.9 149.932 38.7C150.798 37.5 151.982 36.4 153.482 35.4C155.015 34.3667 156.782 33.55 158.782 32.95C160.782 32.3167 162.948 32 165.282 32C168.548 32 171.165 32.6333 173.132 33.9C175.098 35.1333 176.515 36.8167 177.382 38.95C178.282 41.05 178.732 43.4 178.732 46C178.732 48.8667 178.265 51.6167 177.332 54.25C176.432 56.85 175.165 59.25 173.532 61.45C171.932 63.65 170.065 65.5667 167.932 67.2C165.832 68.8333 163.582 70.1 161.182 71C158.815 71.9 156.415 72.35 153.982 72.35ZM188.267 46.95C187.634 46.95 187.051 46.8 186.517 46.5C186.017 46.1667 185.767 45.6667 185.767 45C185.767 44.2 186.201 43.5167 187.067 42.95C187.934 42.3833 188.834 42.1 189.767 42.1C190.367 42.1 190.867 42.2333 191.267 42.5C191.701 42.7667 191.917 43.25 191.917 43.95C191.917 44.65 191.534 45.3333 190.767 46C190.001 46.6333 189.167 46.95 188.267 46.95ZM182.367 69.5C180.901 69.5 179.801 69.0667 179.067 68.2C178.334 67.3333 177.967 66.2833 177.967 65.05C177.967 64.2833 178.101 63.3167 178.367 62.15C178.634 60.9833 179.001 59.7667 179.467 58.5C179.967 57.2 180.534 55.9833 181.167 54.85C181.801 53.7167 182.484 52.8 183.217 52.1C183.951 51.3667 184.684 51 185.417 51C185.817 51 186.167 51.1333 186.467 51.4C186.767 51.6333 186.917 51.9833 186.917 52.45C186.917 52.8833 186.651 53.5333 186.117 54.4C185.617 55.2667 185.017 56.2667 184.317 57.4C183.651 58.5333 183.051 59.7167 182.517 60.95C182.017 62.15 181.767 63.3 181.767 64.4C181.767 65.4667 181.951 66.1833 182.317 66.55C182.717 66.8833 183.284 67.05 184.017 67.05C185.151 67.05 186.384 66.4833 187.717 65.35C189.051 64.2167 190.434 62.2333 191.867 59.4L192.617 60.2C191.451 63.1333 189.967 65.4167 188.167 67.05C186.367 68.6833 184.434 69.5 182.367 69.5ZM196.374 70.2C194.241 70.2 192.591 69.6167 191.424 68.45C190.291 67.3167 189.724 65.8833 189.724 64.15C189.724 62.6833 190.091 61.1333 190.824 59.5C191.591 57.8333 192.608 56.2833 193.874 54.85C195.141 53.3833 196.541 52.2 198.074 51.3C199.608 50.4 201.141 49.95 202.674 49.95C203.541 49.95 204.358 50.1833 205.124 50.65C205.924 51.0833 206.324 51.9667 206.324 53.3C206.324 54.5667 205.958 55.75 205.224 56.85C204.491 57.95 203.508 58.9333 202.274 59.8C201.041 60.6667 199.674 61.3833 198.174 61.95C196.708 62.4833 195.224 62.8333 193.724 63C193.691 63.1333 193.658 63.2833 193.624 63.45C193.624 63.5833 193.624 63.8167 193.624 64.15C193.624 64.3167 193.641 64.6167 193.674 65.05C193.741 65.45 193.891 65.8833 194.124 66.35C194.358 66.8167 194.741 67.2167 195.274 67.55C195.808 67.8833 196.541 68.05 197.474 68.05C198.874 68.05 200.274 67.6667 201.674 66.9C203.108 66.1 204.441 65.05 205.674 63.75C206.941 62.45 207.991 61 208.824 59.4L209.824 60.2C208.924 62.2 207.758 63.95 206.324 65.45C204.924 66.95 203.358 68.1167 201.624 68.95C199.924 69.7833 198.174 70.2 196.374 70.2ZM194.274 61.15C195.141 61.05 196.108 60.75 197.174 60.25C198.241 59.75 199.258 59.1167 200.224 58.35C201.224 57.5833 202.041 56.75 202.674 55.85C203.308 54.9167 203.624 53.9833 203.624 53.05C203.624 52.6833 203.558 52.4333 203.424 52.3C203.291 52.1667 203.074 52.1 202.774 52.1C202.008 52.1 201.208 52.3833 200.374 52.95C199.541 53.4833 198.724 54.2 197.924 55.1C197.124 55.9667 196.408 56.9333 195.774 58C195.141 59.0667 194.641 60.1167 194.274 61.15ZM233.765 69.55C232.465 69.55 231.499 69.1667 230.865 68.4C230.232 67.6333 229.915 66.7167 229.915 65.65C229.915 64.8833 230.032 64.1167 230.265 63.35C230.499 62.5833 230.732 61.8333 230.965 61.1C231.199 60.3333 231.315 59.65 231.315 59.05C231.315 58.4833 231.199 58.1 230.965 57.9C230.765 57.6667 230.499 57.55 230.165 57.55C229.399 57.55 228.499 58.1333 227.465 59.3C226.465 60.4667 225.215 62.1667 223.715 64.4C223.182 65.2 222.682 66.05 222.215 66.95C221.749 67.8167 221.332 68.55 220.965 69.15C220.665 69.15 220.265 69.1 219.765 69C219.299 68.9 218.882 68.75 218.515 68.55C218.149 68.3833 217.965 68.15 217.965 67.85C217.965 67.55 218.132 66.9667 218.465 66.1C218.799 65.2333 219.182 64.2333 219.615 63.1C220.049 61.9333 220.432 60.8 220.765 59.7C221.099 58.5667 221.265 57.6167 221.265 56.85C221.265 55.85 220.915 55.35 220.215 55.35C219.515 55.35 218.665 55.7667 217.665 56.6C216.699 57.4333 215.665 58.5333 214.565 59.9C213.499 61.2333 212.482 62.7333 211.515 64.4C210.582 66.0333 209.815 67.6833 209.215 69.35C208.849 69.35 208.399 69.2667 207.865 69.1C207.332 68.9667 206.865 68.7833 206.465 68.55C206.065 68.35 205.865 68.1667 205.865 68C205.865 67.9667 205.982 67.5 206.215 66.6C206.449 65.6667 206.732 64.5167 207.065 63.15C207.399 61.7833 207.749 60.3833 208.115 58.95C208.482 57.5167 208.799 56.2667 209.065 55.2C209.165 54.8333 209.532 54.5167 210.165 54.25C210.799 53.95 211.349 53.8 211.815 53.8C212.282 53.8 212.682 53.95 213.015 54.25C213.349 54.55 213.515 54.95 213.515 55.45C213.515 55.7833 213.449 56.2667 213.315 56.9C213.182 57.5333 213.015 58.25 212.815 59.05C213.749 57.7833 214.749 56.5667 215.815 55.4C216.915 54.2333 218.032 53.2833 219.165 52.55C220.332 51.7833 221.465 51.4 222.565 51.4C223.799 51.4 224.632 51.85 225.065 52.75C225.499 53.6167 225.715 54.5667 225.715 55.6C225.715 56.2667 225.632 56.9 225.465 57.5C225.332 58.0667 225.132 58.7667 224.865 59.6C225.832 58.2 226.915 57 228.115 56C229.349 54.9667 230.682 54.45 232.115 54.45C233.415 54.45 234.315 54.85 234.815 55.65C235.315 56.4167 235.565 57.2667 235.565 58.2C235.565 59.0667 235.415 59.9833 235.115 60.95C234.849 61.8833 234.565 62.7833 234.265 63.65C233.999 64.4833 233.865 65.2 233.865 65.8C233.865 66.1333 233.949 66.45 234.115 66.75C234.282 67.0167 234.615 67.15 235.115 67.15C236.015 67.15 236.882 66.7333 237.715 65.9C238.549 65.0667 239.315 64.05 240.015 62.85C240.749 61.6167 241.365 60.45 241.865 59.35L242.715 60.4C242.182 61.7667 241.482 63.1667 240.615 64.6C239.782 66 238.799 67.1667 237.665 68.1C236.532 69.0667 235.232 69.55 233.765 69.55Z" fill="white"/>
</svg>
