<svg width="262" height="100" viewBox="0 0 262 100" fill="none" xmlns="http://www.w3.org/2000/svg">
<path d="M28.1475 11.8933C3.44062 6.87752 0.858817 24.8506 2.65627 34.4641C6.74141 34.4641 12.4606 39.6471 2.65627 60.3789C-7.14805 81.1106 28.9645 89.6374 48.2464 91.3093C57.7239 88.3835 95.0129 85.2068 168.349 95.9071C241.686 106.607 260.673 86.9902 261 75.8441C258.222 57.7317 244.627 18.4974 212.469 6.45955C180.311 -5.57825 141.878 5.06628 126.681 11.8933C125.864 14.2618 119.132 20.4201 98.7386 26.1046C73.2474 33.2102 59.0311 18.163 28.1475 11.8933Z" fill="#565EA0" stroke="#565EA0"/>
<path d="M40.5 73.35C37.9667 73.35 35.8833 72.75 34.25 71.55C32.65 70.35 31.4667 68.8 30.7 66.9C29.9667 65 29.6 63.0333 29.6 61C29.6 58.3667 30 55.7333 30.8 53.1C31.6 50.4333 32.7 47.9 34.1 45.5C35.5333 43.1 37.15 40.9667 38.95 39.1C40.75 37.2333 42.6667 35.7667 44.7 34.7C46.7667 33.6 48.8167 33.05 50.85 33.05C52.3167 33.05 53.55 33.4 54.55 34.1C55.55 34.7667 56.05 35.9333 56.05 37.6C56.05 38.6 55.8667 39.7167 55.5 40.95C55.1667 42.1833 54.7 43.3833 54.1 44.55C53.5333 45.6833 52.8833 46.6167 52.15 47.35C51.4167 48.0833 50.6667 48.45 49.9 48.45C49.5667 48.45 49.2167 48.3333 48.85 48.1C48.4833 47.8667 48.15 47.4667 47.85 46.9C48.35 46.3333 48.9167 45.65 49.55 44.85C50.1833 44.0167 50.7833 43.15 51.35 42.25C51.9167 41.3167 52.3833 40.4167 52.75 39.55C53.1167 38.65 53.3 37.8667 53.3 37.2C53.3 36.6 53.1333 36.1333 52.8 35.8C52.4667 35.4333 51.8833 35.25 51.05 35.25C49.5833 35.25 48.0667 35.8 46.5 36.9C44.9667 38 43.4833 39.4833 42.05 41.35C40.6167 43.1833 39.3167 45.25 38.15 47.55C37.0167 49.8167 36.1167 52.1667 35.45 54.6C34.7833 57 34.45 59.2833 34.45 61.45C34.45 63.05 34.6833 64.5833 35.15 66.05C35.65 67.4833 36.4333 68.65 37.5 69.55C38.5667 70.4833 39.9667 70.95 41.7 70.95C43.5 70.95 45.2833 70.45 47.05 69.45C48.85 68.45 50.4833 67.1333 51.95 65.5C53.45 63.8667 54.65 62.1167 55.55 60.25L56.85 61.1C55.6833 63.3333 54.2833 65.3833 52.65 67.25C51.0167 69.0833 49.1667 70.55 47.1 71.65C45.0667 72.7833 42.8667 73.35 40.5 73.35ZM57.1672 71.35C56.0672 71.35 55.1172 70.9833 54.3172 70.25C53.4839 69.5167 53.0672 68.4167 53.0672 66.95C53.0672 65.7833 53.3339 64.5167 53.8672 63.15C54.4005 61.7833 55.1339 60.4333 56.0672 59.1C57.0005 57.7667 58.0672 56.5667 59.2672 55.5C60.4672 54.4 61.7505 53.5167 63.1172 52.85C64.4839 52.1833 65.8505 51.85 67.2172 51.85C68.6505 51.85 69.8672 52.2167 70.8672 52.95C71.8672 53.6833 72.3672 54.65 72.3672 55.85C72.3672 56.75 72.0505 57.4 71.4172 57.8C70.7839 58.2 70.0339 58.3167 69.1672 58.15C69.2339 57.85 69.2839 57.55 69.3172 57.25C69.3839 56.95 69.4172 56.6333 69.4172 56.3C69.4172 55.6333 69.2839 55.0333 69.0172 54.5C68.7505 53.9667 68.1839 53.7 67.3172 53.7C66.3839 53.7 65.4339 54.0167 64.4672 54.65C63.5005 55.2833 62.5672 56.1167 61.6672 57.15C60.8005 58.15 60.0172 59.2667 59.3172 60.5C58.6172 61.7 58.0672 62.8833 57.6672 64.05C57.2672 65.2167 57.0672 66.2667 57.0672 67.2C57.0672 68.2667 57.4505 68.8 58.2172 68.8C58.9839 68.8 59.8339 68.4333 60.7672 67.7C61.7005 66.9333 62.6339 65.9833 63.5672 64.85C64.5339 63.7167 65.4505 62.5667 66.3172 61.4C67.1839 60.2 67.9339 59.1833 68.5672 58.35C68.6672 58.1833 68.8005 58.1 68.9672 58.1C69.1005 58.1333 69.3505 58.2167 69.7172 58.35C70.1172 58.45 70.4839 58.6167 70.8172 58.85C71.1505 59.0833 71.3172 59.3833 71.3172 59.75C71.3172 60.1833 71.0839 60.7833 70.6172 61.55C70.1505 62.2833 69.6672 63.0833 69.1672 63.95C68.7005 64.8167 68.4672 65.6167 68.4672 66.35C68.4672 66.7833 68.5839 67.2 68.8172 67.6C69.0505 67.9667 69.4339 68.15 69.9672 68.15C70.7672 68.15 71.8839 67.5667 73.3172 66.4C74.7839 65.2 76.2672 63.1833 77.7672 60.35L78.7172 61.3C77.4839 64.0333 75.9505 66.25 74.1172 67.95C72.2839 69.65 70.4339 70.5 68.5672 70.5C67.2005 70.5 66.1839 70.0667 65.5172 69.2C64.8505 68.3333 64.4839 67.4 64.4172 66.4V66.15C63.0839 67.75 61.8505 69.0167 60.7172 69.95C59.6172 70.8833 58.4339 71.35 57.1672 71.35ZM85.834 70.3C84.6007 70.3 83.6007 69.9667 82.834 69.3C82.0673 68.6667 81.684 67.8 81.684 66.7C81.684 65.7667 81.9173 64.7667 82.384 63.7C82.8507 62.6333 83.3173 61.5833 83.784 60.55C84.284 59.5167 84.534 58.6 84.534 57.8C84.534 57.0333 84.284 56.4 83.784 55.9C83.284 55.3667 82.7007 54.9333 82.034 54.6C81.3007 56.4333 80.4673 58.2167 79.534 59.95C78.634 61.65 77.9007 62.9833 77.334 63.95L76.584 62.5C77.0507 61.6333 77.6673 60.4 78.434 58.8C79.2007 57.2 79.934 55.4167 80.634 53.45C80.3007 53.1167 80.134 52.6667 80.134 52.1C80.134 51.2333 80.4007 50.4167 80.934 49.65C81.4673 48.8833 81.984 48.5 82.484 48.5C82.884 48.5 83.1673 48.7333 83.334 49.2C83.534 49.6333 83.634 49.9333 83.634 50.1C83.634 50.2667 83.5507 50.5667 83.384 51C83.2507 51.4333 83.1507 51.75 83.084 51.95C83.1173 52.3167 83.4007 52.6833 83.934 53.05C84.5007 53.3833 85.134 53.7833 85.834 54.25C86.534 54.7167 87.1507 55.3 87.684 56C88.2173 56.7 88.484 57.5833 88.484 58.65C88.484 59.6167 88.2673 60.6 87.834 61.6C87.4007 62.6 86.9673 63.5333 86.534 64.4C86.1007 65.2667 85.884 66.0167 85.884 66.65C85.884 67.1167 86.0007 67.4333 86.234 67.6C86.5007 67.7333 86.8007 67.8 87.134 67.8C87.934 67.8 88.7673 67.5667 89.634 67.1C90.5007 66.6 91.3507 65.9667 92.184 65.2C93.0173 64.4333 93.7507 63.6333 94.384 62.8C95.0173 61.9333 95.5007 61.15 95.834 60.45L97.034 61.35C96.4007 62.7833 95.484 64.2 94.284 65.6C93.084 66.9667 91.7507 68.1 90.284 69C88.8173 69.8667 87.334 70.3 85.834 70.3ZM91.948 83C91.548 83 91.1314 82.85 90.698 82.55C90.2314 82.25 89.9814 81.9833 89.948 81.75C90.7814 79.3167 91.498 77.2 92.098 75.4C92.6647 73.6333 93.148 71.95 93.548 70.35C93.948 68.7833 94.3147 67.15 94.648 65.45C94.948 63.7167 95.248 61.75 95.548 59.55C95.8814 57.3167 96.248 54.6333 96.648 51.5C96.7147 51.1 96.798 50.8167 96.898 50.65C96.998 50.45 97.3147 50.35 97.848 50.35C98.8814 50.35 99.6314 50.6333 100.098 51.2C100.565 51.7333 100.798 52.3333 100.798 53C100.798 53.8 100.565 55.3667 100.098 57.7C100.731 56.7333 101.448 55.8167 102.248 54.95C103.081 54.0833 103.998 53.3833 104.998 52.85C105.998 52.2833 107.081 52 108.248 52C109.881 52 111.231 52.55 112.298 53.65C113.365 54.75 113.898 56.2 113.898 58C113.898 59.3 113.598 60.6833 112.998 62.15C112.431 63.5833 111.615 64.95 110.548 66.25C109.481 67.5167 108.198 68.55 106.698 69.35C105.198 70.1833 103.548 70.6 101.748 70.6C100.681 70.6 99.8314 70.4667 99.198 70.2C98.5647 69.9333 98.248 69.6333 98.248 69.3C98.248 69.0667 98.3647 68.9333 98.598 68.9C98.8647 68.8333 99.148 68.8 99.448 68.8C101.015 68.7667 102.431 68.4333 103.698 67.8C104.998 67.1667 106.115 66.35 107.048 65.35C107.981 64.3167 108.698 63.2167 109.198 62.05C109.698 60.8833 109.948 59.7333 109.948 58.6C109.948 57.6 109.715 56.7333 109.248 56C108.815 55.2667 108.115 54.9 107.148 54.9C106.315 54.9 105.465 55.1667 104.598 55.7C103.765 56.2333 102.981 56.9167 102.248 57.75C101.515 58.55 100.865 59.4 100.298 60.3C99.7314 61.1667 99.298 61.9333 98.998 62.6C98.3647 64.8 97.7814 66.9833 97.248 69.15C96.748 71.35 96.2647 73.3833 95.798 75.25C95.3314 77.1167 94.8647 78.7 94.398 80C93.898 81.3 93.3647 82.1833 92.798 82.65C92.5314 82.8833 92.248 83 91.948 83ZM121.202 71.2C119.069 71.2 117.419 70.6167 116.252 69.45C115.119 68.3167 114.552 66.8833 114.552 65.15C114.552 63.6833 114.919 62.1333 115.652 60.5C116.419 58.8333 117.436 57.2833 118.702 55.85C119.969 54.3833 121.369 53.2 122.902 52.3C124.436 51.4 125.969 50.95 127.502 50.95C128.369 50.95 129.186 51.1833 129.952 51.65C130.752 52.0833 131.152 52.9667 131.152 54.3C131.152 55.5667 130.786 56.75 130.052 57.85C129.319 58.95 128.336 59.9333 127.102 60.8C125.869 61.6667 124.502 62.3833 123.002 62.95C121.536 63.4833 120.052 63.8333 118.552 64C118.519 64.1333 118.486 64.2833 118.452 64.45C118.452 64.5833 118.452 64.8167 118.452 65.15C118.452 65.3167 118.469 65.6167 118.502 66.05C118.569 66.45 118.719 66.8833 118.952 67.35C119.186 67.8167 119.569 68.2167 120.102 68.55C120.636 68.8833 121.369 69.05 122.302 69.05C123.702 69.05 125.102 68.6667 126.502 67.9C127.936 67.1 129.269 66.05 130.502 64.75C131.769 63.45 132.819 62 133.652 60.4L134.652 61.2C133.752 63.2 132.586 64.95 131.152 66.45C129.752 67.95 128.186 69.1167 126.452 69.95C124.752 70.7833 123.002 71.2 121.202 71.2ZM119.102 62.15C119.969 62.05 120.936 61.75 122.002 61.25C123.069 60.75 124.086 60.1167 125.052 59.35C126.052 58.5833 126.869 57.75 127.502 56.85C128.136 55.9167 128.452 54.9833 128.452 54.05C128.452 53.6833 128.386 53.4333 128.252 53.3C128.119 53.1667 127.902 53.1 127.602 53.1C126.836 53.1 126.036 53.3833 125.202 53.95C124.369 54.4833 123.552 55.2 122.752 56.1C121.952 56.9667 121.236 57.9333 120.602 59C119.969 60.0667 119.469 61.1167 119.102 62.15ZM154.982 73.35C153.815 73.35 152.698 73.1833 151.632 72.85C150.598 72.55 149.698 71.8833 148.932 70.85C149.032 70.05 149.265 68.8833 149.632 67.35C150.032 65.8167 150.515 64.0833 151.082 62.15C151.648 60.1833 152.248 58.1667 152.882 56.1C153.515 54.0333 154.132 52.0667 154.732 50.2C155.365 48.3 155.915 46.65 156.382 45.25C156.882 43.8167 157.248 42.7833 157.482 42.15C157.582 41.8833 157.748 41.4833 157.982 40.95C158.215 40.4167 158.515 39.8667 158.882 39.3C159.248 38.7333 159.665 38.2667 160.132 37.9C160.632 37.5 161.165 37.3 161.732 37.3C162.298 37.3 162.932 37.5333 163.632 38C162.598 40.3333 161.548 42.9333 160.482 45.8C159.448 48.6333 158.448 51.5667 157.482 54.6C156.548 57.6 155.682 60.5333 154.882 63.4C154.115 66.2333 153.482 68.8333 152.982 71.2C153.248 71.3 153.615 71.3667 154.082 71.4C154.582 71.4667 155.048 71.5 155.482 71.5C157.648 71.5 159.715 70.9667 161.682 69.9C163.648 68.8667 165.448 67.4833 167.082 65.75C168.748 63.9833 170.198 62.0167 171.432 59.85C172.665 57.65 173.615 55.4 174.282 53.1C174.948 50.8 175.282 48.6 175.282 46.5C175.282 43.8 174.815 41.6167 173.882 39.95C172.982 38.25 171.732 37.0167 170.132 36.25C168.532 35.45 166.698 35.05 164.632 35.05C162.465 35.05 160.515 35.45 158.782 36.25C157.048 37.0167 155.682 38.0833 154.682 39.45C153.715 40.7833 153.232 42.3167 153.232 44.05C153.232 44.4167 153.265 44.8167 153.332 45.25C153.398 45.65 153.515 46.05 153.682 46.45C152.248 46.45 151.215 46.15 150.582 45.55C149.982 44.9167 149.682 44.15 149.682 43.25C149.682 42.0833 150.098 40.9 150.932 39.7C151.798 38.5 152.982 37.4 154.482 36.4C156.015 35.3667 157.782 34.55 159.782 33.95C161.782 33.3167 163.948 33 166.282 33C169.548 33 172.165 33.6333 174.132 34.9C176.098 36.1333 177.515 37.8167 178.382 39.95C179.282 42.05 179.732 44.4 179.732 47C179.732 49.8667 179.265 52.6167 178.332 55.25C177.432 57.85 176.165 60.25 174.532 62.45C172.932 64.65 171.065 66.5667 168.932 68.2C166.832 69.8333 164.582 71.1 162.182 72C159.815 72.9 157.415 73.35 154.982 73.35ZM189.267 47.95C188.634 47.95 188.051 47.8 187.517 47.5C187.017 47.1667 186.767 46.6667 186.767 46C186.767 45.2 187.201 44.5167 188.067 43.95C188.934 43.3833 189.834 43.1 190.767 43.1C191.367 43.1 191.867 43.2333 192.267 43.5C192.701 43.7667 192.917 44.25 192.917 44.95C192.917 45.65 192.534 46.3333 191.767 47C191.001 47.6333 190.167 47.95 189.267 47.95ZM183.367 70.5C181.901 70.5 180.801 70.0667 180.067 69.2C179.334 68.3333 178.967 67.2833 178.967 66.05C178.967 65.2833 179.101 64.3167 179.367 63.15C179.634 61.9833 180.001 60.7667 180.467 59.5C180.967 58.2 181.534 56.9833 182.167 55.85C182.801 54.7167 183.484 53.8 184.217 53.1C184.951 52.3667 185.684 52 186.417 52C186.817 52 187.167 52.1333 187.467 52.4C187.767 52.6333 187.917 52.9833 187.917 53.45C187.917 53.8833 187.651 54.5333 187.117 55.4C186.617 56.2667 186.017 57.2667 185.317 58.4C184.651 59.5333 184.051 60.7167 183.517 61.95C183.017 63.15 182.767 64.3 182.767 65.4C182.767 66.4667 182.951 67.1833 183.317 67.55C183.717 67.8833 184.284 68.05 185.017 68.05C186.151 68.05 187.384 67.4833 188.717 66.35C190.051 65.2167 191.434 63.2333 192.867 60.4L193.617 61.2C192.451 64.1333 190.967 66.4167 189.167 68.05C187.367 69.6833 185.434 70.5 183.367 70.5ZM197.374 71.2C195.241 71.2 193.591 70.6167 192.424 69.45C191.291 68.3167 190.724 66.8833 190.724 65.15C190.724 63.6833 191.091 62.1333 191.824 60.5C192.591 58.8333 193.608 57.2833 194.874 55.85C196.141 54.3833 197.541 53.2 199.074 52.3C200.608 51.4 202.141 50.95 203.674 50.95C204.541 50.95 205.358 51.1833 206.124 51.65C206.924 52.0833 207.324 52.9667 207.324 54.3C207.324 55.5667 206.958 56.75 206.224 57.85C205.491 58.95 204.508 59.9333 203.274 60.8C202.041 61.6667 200.674 62.3833 199.174 62.95C197.708 63.4833 196.224 63.8333 194.724 64C194.691 64.1333 194.658 64.2833 194.624 64.45C194.624 64.5833 194.624 64.8167 194.624 65.15C194.624 65.3167 194.641 65.6167 194.674 66.05C194.741 66.45 194.891 66.8833 195.124 67.35C195.358 67.8167 195.741 68.2167 196.274 68.55C196.808 68.8833 197.541 69.05 198.474 69.05C199.874 69.05 201.274 68.6667 202.674 67.9C204.108 67.1 205.441 66.05 206.674 64.75C207.941 63.45 208.991 62 209.824 60.4L210.824 61.2C209.924 63.2 208.758 64.95 207.324 66.45C205.924 67.95 204.358 69.1167 202.624 69.95C200.924 70.7833 199.174 71.2 197.374 71.2ZM195.274 62.15C196.141 62.05 197.108 61.75 198.174 61.25C199.241 60.75 200.258 60.1167 201.224 59.35C202.224 58.5833 203.041 57.75 203.674 56.85C204.308 55.9167 204.624 54.9833 204.624 54.05C204.624 53.6833 204.558 53.4333 204.424 53.3C204.291 53.1667 204.074 53.1 203.774 53.1C203.008 53.1 202.208 53.3833 201.374 53.95C200.541 54.4833 199.724 55.2 198.924 56.1C198.124 56.9667 197.408 57.9333 196.774 59C196.141 60.0667 195.641 61.1167 195.274 62.15ZM234.765 70.55C233.465 70.55 232.499 70.1667 231.865 69.4C231.232 68.6333 230.915 67.7167 230.915 66.65C230.915 65.8833 231.032 65.1167 231.265 64.35C231.499 63.5833 231.732 62.8333 231.965 62.1C232.199 61.3333 232.315 60.65 232.315 60.05C232.315 59.4833 232.199 59.1 231.965 58.9C231.765 58.6667 231.499 58.55 231.165 58.55C230.399 58.55 229.499 59.1333 228.465 60.3C227.465 61.4667 226.215 63.1667 224.715 65.4C224.182 66.2 223.682 67.05 223.215 67.95C222.749 68.8167 222.332 69.55 221.965 70.15C221.665 70.15 221.265 70.1 220.765 70C220.299 69.9 219.882 69.75 219.515 69.55C219.149 69.3833 218.965 69.15 218.965 68.85C218.965 68.55 219.132 67.9667 219.465 67.1C219.799 66.2333 220.182 65.2333 220.615 64.1C221.049 62.9333 221.432 61.8 221.765 60.7C222.099 59.5667 222.265 58.6167 222.265 57.85C222.265 56.85 221.915 56.35 221.215 56.35C220.515 56.35 219.665 56.7667 218.665 57.6C217.699 58.4333 216.665 59.5333 215.565 60.9C214.499 62.2333 213.482 63.7333 212.515 65.4C211.582 67.0333 210.815 68.6833 210.215 70.35C209.849 70.35 209.399 70.2667 208.865 70.1C208.332 69.9667 207.865 69.7833 207.465 69.55C207.065 69.35 206.865 69.1667 206.865 69C206.865 68.9667 206.982 68.5 207.215 67.6C207.449 66.6667 207.732 65.5167 208.065 64.15C208.399 62.7833 208.749 61.3833 209.115 59.95C209.482 58.5167 209.799 57.2667 210.065 56.2C210.165 55.8333 210.532 55.5167 211.165 55.25C211.799 54.95 212.349 54.8 212.815 54.8C213.282 54.8 213.682 54.95 214.015 55.25C214.349 55.55 214.515 55.95 214.515 56.45C214.515 56.7833 214.449 57.2667 214.315 57.9C214.182 58.5333 214.015 59.25 213.815 60.05C214.749 58.7833 215.749 57.5667 216.815 56.4C217.915 55.2333 219.032 54.2833 220.165 53.55C221.332 52.7833 222.465 52.4 223.565 52.4C224.799 52.4 225.632 52.85 226.065 53.75C226.499 54.6167 226.715 55.5667 226.715 56.6C226.715 57.2667 226.632 57.9 226.465 58.5C226.332 59.0667 226.132 59.7667 225.865 60.6C226.832 59.2 227.915 58 229.115 57C230.349 55.9667 231.682 55.45 233.115 55.45C234.415 55.45 235.315 55.85 235.815 56.65C236.315 57.4167 236.565 58.2667 236.565 59.2C236.565 60.0667 236.415 60.9833 236.115 61.95C235.849 62.8833 235.565 63.7833 235.265 64.65C234.999 65.4833 234.865 66.2 234.865 66.8C234.865 67.1333 234.949 67.45 235.115 67.75C235.282 68.0167 235.615 68.15 236.115 68.15C237.015 68.15 237.882 67.7333 238.715 66.9C239.549 66.0667 240.315 65.05 241.015 63.85C241.749 62.6167 242.365 61.45 242.865 60.35L243.715 61.4C243.182 62.7667 242.482 64.1667 241.615 65.6C240.782 67 239.799 68.1667 238.665 69.1C237.532 70.0667 236.232 70.55 234.765 70.55Z" fill="white"/>
</svg>
