<?xml version="1.0" ?><!DOCTYPE svg  PUBLIC '-//W3C//DTD SVG 1.1//EN'  'http://www.w3.org/Graphics/SVG/1.1/DTD/svg11.dtd'><svg enable-background="new 0 0 64 64" height="64px" id="Layer_1" version="1.1" viewBox="0 0 64 64" width="64px" xml:space="preserve" xmlns="http://www.w3.org/2000/svg" xmlns:xlink="http://www.w3.org/1999/xlink"><path d="M62.659,31.143h-1.25H41.652c-0.727,0,0-0.672,0-0.672l-0.008-0.002c0.332-0.306,0.593-0.589,0.782-0.804  c3.353-4.425,0.495-11.014,0.056-11.959c-1.567-2.757-3.473-4.272-5.387-5.044c-0.148-0.055-0.292-0.105-0.465-0.18  c-0.862-0.318-1.868-0.623-2.98-0.852c-4.868-0.727-9.481,1.551-9.521,1.571C19.921,15.604,9.186,21.92,4.393,26.498  c-0.234,0.219-0.464,0.446-0.687,0.687c-0.176,0.186-0.338,0.366-0.49,0.544c-0.04,0.049-0.083,0.092-0.121,0.142  c-0.142,0.174-0.275,0.345-0.393,0.511l0.032-0.014c-0.939,1.284-1.707,2.808-2.18,4.652c-1.52,4.786,0.112,15.48,9.115,18.852  c0.399,0.131,2.14,0.642,4.755,0.642h23.466h1.192c0.854-0.034,2.903-0.312,4.87-2.067c0-0.002,0-0.002,0.003-0.003l18.349-16.41  l0.527-0.47C65.436,31.231,62.659,31.143,62.659,31.143z M24.368,17.02c0.059-0.035,8.917-5.139,13.655,0.873  c0.625,0.865,1.282,1.92,1.788,3.064c0.048,0.165,1.424,5.084-0.852,7.618c-0.023,0.022-0.04,0.048-0.063,0.069  c-0.051,0.055-0.115,0.101-0.168,0.151c-0.199,0.187-0.41,0.373-0.646,0.551l-9.904,7.402c0.238-4.306-1.529-8.61-2.423-10.042  c-2.289-3.313-5.517-4.409-7.494-4.774c-0.616-0.108-1.77-0.128-1.77-0.128L24.368,17.02z M56.388,35.706L43.491,47.425  c-2.001,1.816-4.122,2.136-5.067,2.181H13.849c-1.928,0-3.959-0.713-4.142-0.778c-0.6-0.29-1.233-0.632-1.872-1.043  c-7.04-4.507-4.927-13.113-4.584-14.341c0.008-0.021,0.012-0.04,0.019-0.061c0.016-0.059,0.029-0.1,0.029-0.1l-0.002-0.001  C4.811,28.491,8.378,25,15.092,24.797c0.839,0.016,3.268,0.214,5.429,1.851c0.532,0.434,1.063,0.943,1.584,1.559  c1.03,1.331,3.421,5.206,2.332,9.686c-0.878,2.937-2.15,4.207-3.904,5.388c-1.756,1.182-5.237,2.271-8.508,0.272  c-1.905-1.303-3.358-3.541-3.087-6.509c0.273-2.968,3.331-5.116,6.054-4.48c2.725,0.635,4.33,4.722,1.392,6.357  c-1.384,0.588-2.22,0.239-2.768-0.51l-0.001,0.003c0,0-0.788-0.734-1.787-0.281c-0.99,0.451-0.672,1.859-0.667,1.882  c1.079,1.586,3.152,2.774,6.26,1.677c0.716-0.253,1.299-0.648,1.784-1.124l0.007,0.001c0,0,0.048-0.05,0.114-0.12  c0.105-0.11,0.205-0.226,0.3-0.346c1.07-1.318,3.581-5.282-0.414-9.762c-2.33-1.867-9.543-3.871-12.557,4.171  c-0.112,0.265-0.212,0.538-0.299,0.826c-0.014,0.041-0.029,0.074-0.043,0.115c0.003,0.002,0.003,0,0.005,0.002  c-0.529,1.821-0.527,4.046,0.562,6.523c2.422,5.51,9.413,6.991,14.499,4.268c0.922-0.494,1.756-1.104,2.497-1.805l-0.004,0.006  l12.29-9.64c0,0,0.859-0.776,2.177-0.776h18.024C58.117,34.031,56.595,35.511,56.388,35.706z" fill="#fff"/></svg>