<svg width="35" height="35" viewBox="0 0 35 35" fill="none" xmlns="http://www.w3.org/2000/svg">
<path d="M4.375 26.25V17.5C4.375 14.019 5.75781 10.6806 8.21922 8.21922C10.6806 5.75781 14.019 4.375 17.5 4.375C20.981 4.375 24.3194 5.75781 26.7808 8.21922C29.2422 10.6806 30.625 14.019 30.625 17.5V26.25" stroke="white" stroke-width="3" stroke-linecap="round" stroke-linejoin="round"/>
<path d="M30.625 27.7084C30.625 28.4819 30.3177 29.2238 29.7707 29.7707C29.2237 30.3177 28.4819 30.625 27.7083 30.625H26.25C25.4765 30.625 24.7346 30.3177 24.1876 29.7707C23.6406 29.2238 23.3333 28.4819 23.3333 27.7084V23.3334C23.3333 22.5598 23.6406 21.8179 24.1876 21.271C24.7346 20.724 25.4765 20.4167 26.25 20.4167H30.625V27.7084ZM4.375 27.7084C4.375 28.4819 4.68229 29.2238 5.22927 29.7707C5.77625 30.3177 6.51812 30.625 7.29167 30.625H8.75C9.52355 30.625 10.2654 30.3177 10.8124 29.7707C11.3594 29.2238 11.6667 28.4819 11.6667 27.7084V23.3334C11.6667 22.5598 11.3594 21.8179 10.8124 21.271C10.2654 20.724 9.52355 20.4167 8.75 20.4167H4.375V27.7084Z" stroke="white" stroke-width="3" stroke-linecap="round" stroke-linejoin="round"/>
</svg>
