<svg width="48" height="60" viewBox="0 0 48 60" fill="none" xmlns="http://www.w3.org/2000/svg">
<path d="M46.7508 15.1648L32.4602 0.874219C32.0617 0.475781 31.5238 0.25 30.9594 0.25H2.75C1.57461 0.25 0.625 1.19961 0.625 2.375V57.625C0.625 58.8004 1.57461 59.75 2.75 59.75H45.25C46.4254 59.75 47.375 58.8004 47.375 57.625V16.6723C47.375 16.1078 47.1492 15.5633 46.7508 15.1648ZM42.4742 17.6484H29.9766V5.15078L42.4742 17.6484ZM42.5938 54.9688H5.40625V5.03125H25.4609V19.375C25.4609 20.1147 25.7548 20.8241 26.2778 21.3472C26.8009 21.8702 27.5103 22.1641 28.25 22.1641H42.5938V54.9688ZM26.125 27.3438C26.125 27.0516 25.8859 26.8125 25.5938 26.8125H22.4062C22.1141 26.8125 21.875 27.0516 21.875 27.3438V34.5156H14.7031C14.4109 34.5156 14.1719 34.7547 14.1719 35.0469V38.2344C14.1719 38.5266 14.4109 38.7656 14.7031 38.7656H21.875V45.9375C21.875 46.2297 22.1141 46.4688 22.4062 46.4688H25.5938C25.8859 46.4688 26.125 46.2297 26.125 45.9375V38.7656H33.2969C33.5891 38.7656 33.8281 38.5266 33.8281 38.2344V35.0469C33.8281 34.7547 33.5891 34.5156 33.2969 34.5156H26.125V27.3438Z" fill="#808080"/>
</svg>
