<svg width="16" height="16" viewBox="0 0 16 16" fill="none" xmlns="http://www.w3.org/2000/svg">
<path d="M12.5 4.625L11.84 3.85719C11.2804 3.26943 10.6071 2.80168 9.86094 2.4824C9.11483 2.16312 8.31155 1.99899 7.5 2C4.1875 2 1.5 4.6875 1.5 8C1.5 11.3125 4.1875 14 7.5 14C8.74094 13.9999 9.95136 13.6152 10.9647 12.8989C11.978 12.1826 12.7444 11.1698 13.1584 10" stroke="white" stroke-width="2" stroke-miterlimit="10" stroke-linecap="round"/>
<path d="M14.5 3.04438V6.50001C14.5 6.63261 14.4473 6.75979 14.3535 6.85356C14.2598 6.94733 14.1326 7.00001 14 7.00001H10.5443C10.0987 7.00001 9.8756 6.46157 10.1906 6.14657L13.6465 2.69063C13.9615 2.37501 14.5 2.59876 14.5 3.04438Z" fill="white"/>
</svg>
