<svg width="24" height="24" viewBox="0 0 24 24" fill="none" xmlns="http://www.w3.org/2000/svg">
<path d="M20.7825 6.96751L17.0325 3.21751C16.9624 3.148 16.8793 3.09301 16.7879 3.05568C16.6966 3.01836 16.5987 2.99944 16.5 3.00001H4.5C4.10218 3.00001 3.72064 3.15805 3.43934 3.43935C3.15804 3.72066 3 4.10219 3 4.50001V19.5C3 19.8978 3.15804 20.2794 3.43934 20.5607C3.72064 20.842 4.10218 21 4.5 21H19.5C19.8978 21 20.2794 20.842 20.5607 20.5607C20.842 20.2794 21 19.8978 21 19.5V7.50001C21.0006 7.40131 20.9817 7.30346 20.9443 7.21208C20.907 7.1207 20.852 7.03759 20.7825 6.96751ZM9 4.50001H15V7.50001H9V4.50001ZM15 19.5H9V13.5H15V19.5ZM16.5 19.5V13.5C16.5 13.1022 16.342 12.7207 16.0607 12.4394C15.7794 12.158 15.3978 12 15 12H9C8.60218 12 8.22064 12.158 7.93934 12.4394C7.65804 12.7207 7.5 13.1022 7.5 13.5V19.5H4.5V4.50001H7.5V7.50001C7.5 7.89784 7.65804 8.27937 7.93934 8.56067C8.22064 8.84198 8.60218 9.00001 9 9.00001H15C15.3978 9.00001 15.7794 8.84198 16.0607 8.56067C16.342 8.27937 16.5 7.89784 16.5 7.50001V4.80751L19.5 7.80751V19.5H16.5Z" fill="white"/>
</svg>
