<svg width="38" height="38" viewBox="0 0 38 38" fill="none" xmlns="http://www.w3.org/2000/svg">
<path d="M36.0619 19.5389L18.4062 1.88316C18.1862 1.66193 17.9245 1.48653 17.6363 1.36713C17.348 1.24772 17.0389 1.18667 16.7269 1.18751H4.75C3.8055 1.18859 2.89999 1.56427 2.23213 2.23213C1.56426 2.9 1.18858 3.80551 1.1875 4.75001V16.705C1.18802 17.0293 1.25471 17.3501 1.38349 17.6477C1.51226 17.9453 1.70042 18.2136 1.93644 18.4359L20.7183 36.0796C21.0474 36.3907 21.4834 36.5637 21.9362 36.5628C21.9584 36.5628 21.9806 36.5623 22.003 36.5615C22.2385 36.5537 22.47 36.4988 22.684 36.4003C22.898 36.3017 23.0902 36.1614 23.2492 35.9875L36.1134 22.0043C36.4255 21.6666 36.5946 21.221 36.585 20.7612C36.5754 20.3015 36.3879 19.8633 36.0619 19.5389ZM21.9072 33.9379L3.5625 16.705V4.75001C3.56287 4.43518 3.6881 4.13335 3.91072 3.91073C4.13334 3.68811 4.43517 3.56288 4.75 3.56251H16.7269L33.9799 20.8155L21.9072 33.9379Z" fill="white"/>
<path d="M10.9844 7.125C10.2211 7.125 9.47489 7.35135 8.84022 7.77542C8.20555 8.1995 7.71089 8.80225 7.41878 9.50746C7.12667 10.2127 7.05024 10.9887 7.19916 11.7373C7.34807 12.4859 7.71564 13.1736 8.25539 13.7134C8.79513 14.2531 9.4828 14.6207 10.2314 14.7696C10.9801 14.9185 11.7561 14.8421 12.4613 14.55C13.1665 14.2579 13.7693 13.7632 14.1933 13.1285C14.6174 12.4939 14.8438 11.7477 14.8438 10.9844C14.8426 9.96116 14.4356 8.98019 13.7121 8.25666C12.9886 7.53314 12.0076 7.12616 10.9844 7.125ZM10.9844 12.4688C10.6908 12.4688 10.4038 12.3817 10.1597 12.2186C9.9156 12.0555 9.72534 11.8237 9.61299 11.5524C9.50064 11.2812 9.47125 10.9827 9.52852 10.6948C9.5858 10.4068 9.72717 10.1424 9.93476 9.93476C10.1424 9.72717 10.4068 9.5858 10.6948 9.52852C10.9827 9.47125 11.2812 9.50064 11.5524 9.61299C11.8237 9.72534 12.0555 9.9156 12.2186 10.1597C12.3817 10.4038 12.4688 10.6908 12.4688 10.9844C12.4683 11.3779 12.3118 11.7552 12.0335 12.0335C11.7552 12.3118 11.3779 12.4683 10.9844 12.4688Z" fill="white"/>
</svg>
