<svg width="16" height="16" viewBox="0 0 16 16" fill="none" xmlns="http://www.w3.org/2000/svg">
<path d="M1.29303 1.29296C1.48056 1.10549 1.73487 1.00017 2.00003 1.00017C2.26519 1.00017 2.5195 1.10549 2.70703 1.29296L8.00003 6.58596L13.293 1.29296C13.3853 1.19745 13.4956 1.12127 13.6176 1.06886C13.7396 1.01645 13.8709 0.988862 14.0036 0.987709C14.1364 0.986555 14.2681 1.01186 14.391 1.06214C14.5139 1.11242 14.6255 1.18667 14.7194 1.28056C14.8133 1.37446 14.8876 1.48611 14.9379 1.60901C14.9881 1.7319 15.0134 1.86358 15.0123 1.99636C15.0111 2.12914 14.9835 2.26036 14.9311 2.38236C14.8787 2.50437 14.8025 2.61471 14.707 2.70696L9.41403 7.99996L14.707 13.293C14.8892 13.4816 14.99 13.7342 14.9877 13.9964C14.9854 14.2586 14.8803 14.5094 14.6948 14.6948C14.5094 14.8802 14.2586 14.9854 13.9964 14.9876C13.7342 14.9899 13.4816 14.8891 13.293 14.707L8.00003 9.41396L2.70703 14.707C2.51843 14.8891 2.26583 14.9899 2.00363 14.9876C1.74143 14.9854 1.49062 14.8802 1.30521 14.6948C1.1198 14.5094 1.01464 14.2586 1.01236 13.9964C1.01008 13.7342 1.11087 13.4816 1.29303 13.293L6.58603 7.99996L1.29303 2.70696C1.10556 2.51943 1.00024 2.26512 1.00024 1.99996C1.00024 1.73479 1.10556 1.48049 1.29303 1.29296Z" fill="white"/>
</svg>
