<svg width="908" height="637" viewBox="0 0 908 637" fill="none" xmlns="http://www.w3.org/2000/svg">
<ellipse cx="417" cy="509.5" rx="233" ry="46.5" fill="#2F2F2F" fill-opacity="0.21"/>
<path d="M-31.1633 404.933C-31.1633 404.933 -187.421 268.056 9.53959 203.352C107.762 171.093 130.865 154.516 207.181 92.0789C316.409 2.6891 459.57 -48.9707 645.68 108.626C831.79 266.222 972.241 315.1 849.709 409.59C711.979 515.805 795.765 570.421 778.495 600.362C773.899 608.327 744.789 574.264 680.684 609.336C534.679 689.216 460.373 567.691 353 598.003C251.727 626.594 199.689 563.353 166.725 588.081C117.562 624.976 86.803 624.502 68.3269 614.797C52.8701 606.657 43.7712 589.853 44.4822 572.245C45.2963 552.236 45.4406 514.764 37.3721 487.492C25.1716 446.269 -4.51579 425.189 -31.1633 404.933Z" fill="#383838" fill-opacity="0.26"/>
<path d="M140.098 146.582L88.8845 181.046C88.2148 181.448 87.0297 174.174 86.3084 174.483L51.4378 187.877L51.0359 438.171L269.008 435.492L267.349 96.2619L201.06 96.8698L140.098 146.582Z" fill="#BDBDBD" fill-opacity="0.22"/>
<path d="M123.219 154.722L69.8727 180.861L69.7388 187.846L247.523 186.816L246.812 122.834L170.146 121.803L152.958 134.95C149.949 137.227 146.271 139.648 141.623 142.739C133.915 147.839 129.258 151.25 123.219 154.722Z" fill="#B0C0F4"/>
<path d="M69.8315 198.325V261.514L247.78 261.153L247.791 198.325H69.8315Z" fill="#B0C0F4"/>
<path d="M70.326 272.775V335.974L248.265 335.613L248.275 272.775H70.326Z" fill="#B0C0F4"/>
<path d="M71.3051 348.317V411.516L249.244 411.156L249.254 348.317H71.3051Z" fill="#B0C0F4"/>
<path d="M131.751 308.691L140.098 297.77L171.104 325.382L163.345 336.623L131.751 308.691Z" fill="#141414" fill-opacity="0.22"/>
<path d="M70.2745 285.108L90.3478 285.221L90.5023 336.098L70.3054 335.85L70.2745 285.108Z" fill="#141414" fill-opacity="0.22"/>
<path d="M114.192 293.773L122.374 289.095L143.354 330.967L135.172 336.479L114.192 293.773Z" fill="#383838" fill-opacity="0.26"/>
<path d="M104.486 279.565H114.244L114.491 336.283L104.465 336.026L104.486 279.565Z" fill="#141414" fill-opacity="0.22"/>
<path d="M90.4818 296.863L104.702 297.121L104.465 336.149L90.2344 335.933L90.4818 296.863Z" fill="#383838" fill-opacity="0.26"/>
<path d="M168.312 284.963L188.385 285.077L188.529 335.953L168.343 335.706L168.312 284.963Z" fill="#141414" fill-opacity="0.22"/>
<path d="M202.523 279.42H212.271L212.518 336.139L202.502 335.881L202.523 279.42Z" fill="#141414" fill-opacity="0.22"/>
<path d="M188.519 296.73L202.739 296.977L202.502 336.015L188.261 335.789L188.519 296.73Z" fill="#383838" fill-opacity="0.26"/>
<path d="M71.3152 353.582L86.6381 353.716L86.7514 412.042L71.3359 411.753L71.3152 353.582Z" fill="#141414" fill-opacity="0.22"/>
<path d="M86.6897 362.381L97.0664 362.247L96.6954 411.774L86.4424 411.764L86.6897 362.381Z" fill="#383838" fill-opacity="0.26"/>
<path d="M97.0663 372.571L111.132 372.756L110.905 411.795L96.6644 411.568L97.0663 372.571Z" fill="#141414" fill-opacity="0.22"/>
<path d="M183.552 179.398V186.661L240.485 187.063V179.398H183.552Z" fill="#383838" fill-opacity="0.26"/>
<path d="M183.47 173.638L183.738 179.449L220.772 179.717L220.525 173.37L183.47 173.638Z" fill="#141414" fill-opacity="0.22"/>
<path d="M69.9448 210.575L90.018 210.699L90.1726 261.575L69.9861 261.318L69.9448 210.575Z" fill="#141414" fill-opacity="0.22"/>
<path d="M226.244 218.735L217.784 214.047L196.124 255.929L204.574 261.431L226.244 218.735Z" fill="#383838" fill-opacity="0.26"/>
<path d="M238.249 204.506H247.997L248.244 261.215L238.228 260.967L238.249 204.506Z" fill="#141414" fill-opacity="0.22"/>
<path d="M224.853 222.135L239.073 222.382L238.836 261.421L224.606 261.194L224.853 222.135Z" fill="#383838" fill-opacity="0.26"/>
<path d="M129.072 254.085V261.349L186.005 261.75V254.085H129.072Z" fill="#383838" fill-opacity="0.26"/>
<path d="M138.006 248.14L138.284 253.941L175.319 254.209L175.072 247.872L138.006 248.14Z" fill="#141414" fill-opacity="0.22"/>
<path d="M678.232 510.663C678.232 510.663 661.126 530.837 675.14 531.393C689.154 531.95 717.904 548.208 723.407 533.639C728.909 519.071 739.894 511.786 733.186 510.107C726.477 508.428 720.357 501.7 706.301 502.823C692.246 503.946 678.232 510.663 678.232 510.663Z" fill="#383838" fill-opacity="0.26"/>
<path d="M673.759 412.454C673.759 412.454 665.742 413.319 665.742 423.241C665.742 433.163 670.895 519.194 690.473 520.884C703.199 521.986 716.667 521.914 723.324 521.275C726.199 520.997 729.023 512.312 729.507 508.829C732.093 491.736 735.422 450.102 736.153 425.848C736.298 420.954 732.928 414.391 731.166 412.784C721.438 403.902 673.759 412.454 673.759 412.454Z" fill="#97979B" fill-opacity="0.77"/>
<path d="M768.499 246.152C765.408 243.277 761.101 247.182 762.739 251.241C764.295 255.126 765.377 261.874 759.143 269.107C749.467 280.327 714.565 318.242 714.916 342.62C715.266 366.997 707.703 373.797 714.916 383.08C722.129 392.363 751.198 391.992 758.803 372.262C766.407 352.531 785.698 344.557 785.327 316.326C784.956 288.096 781.576 275.691 778.113 266.026C775.97 259.896 772.549 249.943 768.499 246.152Z" fill="#BDBDBD" fill-opacity="0.22"/>
<path d="M715.627 408.796C715.627 408.796 718.718 364.606 753.259 345.371C774.898 333.316 776.362 291.475 771.189 282.017" stroke="#141414" stroke-opacity="0.22" stroke-width="0.985022" stroke-linecap="round" stroke-linejoin="round"/>
<path d="M720.058 427.352C720.058 427.352 730.939 470.852 719.151 505.295L720.058 427.352Z" fill="#5E5E5E" fill-opacity="0.4"/>
<path d="M744.933 236.528C741.646 233.778 737.009 237.487 738.75 241.392C740.42 245.111 741.574 251.561 734.896 258.474C724.53 269.21 687.145 305.477 687.495 328.793C687.846 352.109 687.495 365.802 695.265 374.683C703.035 383.564 721.026 376.434 729.136 357.559C737.246 338.684 763.327 330.647 762.956 303.622C762.585 276.597 758.937 264.759 755.237 255.507C752.94 249.675 749.261 240.155 744.933 236.528Z" fill="#5E5E5E" fill-opacity="0.4"/>
<path d="M701.201 409.703C701.201 409.703 689.041 349.585 718.646 313.503C730.486 299.079 748.045 270.106 747.89 256.135" stroke="#141414" stroke-opacity="0.22" stroke-width="0.985022" stroke-linecap="round" stroke-linejoin="round"/>
<path d="M652.666 246.152C655.706 243.277 660.003 247.182 658.385 251.241C656.839 255.126 655.768 261.874 661.95 269.107C671.544 280.327 706.157 318.242 705.817 342.62C705.477 366.997 705.817 381.308 698.604 390.601C691.39 399.895 674.79 392.435 667.247 372.705C659.704 352.974 635.612 344.557 635.911 316.326C636.21 288.096 639.631 275.691 643.062 266.026C645.267 259.896 648.658 249.943 652.666 246.152Z" fill="#BDBDBD" fill-opacity="0.22"/>
<path d="M691.555 410.795C691.555 410.795 705.487 356.189 678.077 320.128C667.113 305.704 649.554 284.314 649.698 270.343" stroke="#141414" stroke-opacity="0.22" stroke-width="0.985022" stroke-linecap="round" stroke-linejoin="round"/>
<path d="M630.439 341.373C630.439 341.373 601.803 342.032 586.346 307.249C570.889 272.466 605.667 265.449 631.315 284.067C656.963 302.685 646.422 310.412 676.985 327.629C707.548 344.845 700.881 378.917 691.411 388.046C681.941 397.175 664.011 411.228 652.058 374.343C640.105 337.458 630.439 341.373 630.439 341.373Z" fill="#B0C0F4"/>
<path d="M686.063 411.228C686.063 411.228 688.124 324.301 601.865 300.346" stroke="#141414" stroke-opacity="0.22" stroke-width="0.985022" stroke-linecap="round" stroke-linejoin="round"/>
<path d="M673.759 412.454C673.759 412.454 708.867 406.808 722.582 409.765C736.298 412.722 698.387 416.215 698.387 416.215C698.387 416.215 680.323 417.018 673.759 412.454Z" fill="#5E5E5E" fill-opacity="0.4"/>
<path d="M247.822 421.644C247.822 421.644 208.252 390.436 201.565 359.826C194.877 329.215 209.365 308.001 230.541 304.663C251.717 301.325 264.546 291.269 338.656 316.367C412.766 341.466 498.047 296.863 498.047 296.863C498.047 296.863 567.736 264.81 602.122 272.631C641.28 281.522 649.606 305.219 639.023 347.575C628.44 389.931 592.385 421.964 592.385 421.964L247.822 421.644Z" fill="#5E5E5E" fill-opacity="0.71"/>
<path d="M229.912 418.327C229.912 418.327 223.73 418.327 222.699 424.509C221.669 430.691 223.73 450.266 226.821 456.448C229.912 462.63 244.411 462.321 244.411 462.321L597.784 461.6C597.784 461.6 609.521 461.723 612.211 452.327C614.364 444.775 617.507 437.243 617.734 432.03C617.866 429.065 616.891 426.158 614.998 423.872C613.105 421.587 610.429 420.088 607.491 419.666C603.655 419.194 599.794 418.94 595.929 418.904C569.127 418.894 229.912 418.327 229.912 418.327Z" fill="#5E5E5E" fill-opacity="0.68"/>
<path d="M213.425 514.146L237.125 462.63H255.674L230.943 514.146H213.425Z" fill="#141414" fill-opacity="0.22"/>
<path d="M578.206 462.63L599.845 515.176L615.302 514.146L594.693 462.63H578.206Z" fill="#141414" fill-opacity="0.22"/>
<path d="M253.829 418.883C253.829 418.883 221.257 393.754 219.732 383.296C217.743 369.748 230.036 349.502 277.664 358.466C325.291 367.429 409.273 391.683 454.788 379.268C500.303 366.852 557.597 314.945 561.718 312.205C565.84 309.464 614.539 285.479 625.606 322.024C636.674 358.569 592.179 418.492 592.179 418.492L253.829 418.883Z" fill="#595959" fill-opacity="0.68"/>
<path d="M412.251 0L413.601 69.7727L415.239 69.4739L416.692 0H412.251Z" fill="#5E5E5E" fill-opacity="0.4"/>
<path d="M376.876 126.934C376.876 126.934 363.892 68.6702 415.27 68.1138C463.877 67.5884 451.408 129.932 451.408 129.932L376.876 126.934Z" fill="#5E5E5E" fill-opacity="0.4"/>
<path d="M376.422 126.945C376.422 126.945 417.764 109.048 451.532 129.706C451.532 129.706 415.992 148.612 376.422 126.945Z" fill="#141414" fill-opacity="0.22"/>
<path d="M396.423 78.5303C396.423 78.5303 378.401 85.2479 382.069 115.786L396.423 78.5303Z" fill="#141414" fill-opacity="0.22"/>
<path d="M376.412 126.945L339.954 258.093L489.143 256.63L451.522 129.706L376.412 126.945Z" fill="url(#paint0_linear)"/>
<defs>
<linearGradient id="paint0_linear" x1="414.281" y1="56.2344" x2="414.59" y2="284.716" gradientUnits="userSpaceOnUse">
<stop stop-color="#A29B9B"/>
<stop offset="1" stop-color="white" stop-opacity="0"/>
</linearGradient>
</defs>
</svg>
