<svg width="20" height="17" viewBox="0 0 20 17" fill="none" xmlns="http://www.w3.org/2000/svg">
<path d="M10 0C4.48 0 0 3.62667 0 8.09524C0 12.5638 4.48 16.1905 10 16.1905H15V14.5714H10C5.66 14.5714 2 11.6086 2 8.09524C2 4.5819 5.66 1.61905 10 1.61905C14.34 1.61905 18 4.5819 18 8.09524V9.25286C18 9.89238 17.29 10.5238 16.5 10.5238C15.71 10.5238 15 9.89238 15 9.25286V8.09524C15 5.86095 12.76 4.04762 10 4.04762C7.24 4.04762 5 5.86095 5 8.09524C5 10.3295 7.24 12.1429 10 12.1429C11.38 12.1429 12.64 11.6895 13.54 10.9529C14.19 11.6733 15.31 12.1429 16.5 12.1429C18.47 12.1429 20 10.8476 20 9.25286V8.09524C20 3.62667 15.52 0 10 0ZM10 10.5238C8.34 10.5238 7 9.43905 7 8.09524C7 6.75143 8.34 5.66667 10 5.66667C11.66 5.66667 13 6.75143 13 8.09524C13 9.43905 11.66 10.5238 10 10.5238Z" fill="#838383"/>
</svg>
