<svg width="38" height="38" viewBox="0 0 38 38" fill="none" xmlns="http://www.w3.org/2000/svg">
<path d="M17.9905 23.4454C19.5838 22.3871 20.7941 20.8439 21.4421 19.0442C22.0902 17.2446 22.1416 15.2841 21.5889 13.453C21.0361 11.6218 19.9085 10.0173 18.3729 8.87677C16.8374 7.73629 14.9754 7.12048 13.0626 7.12048C11.1499 7.12048 9.28791 7.73629 7.75233 8.87677C6.21675 10.0173 5.08914 11.6218 4.53638 13.453C3.98362 15.2841 4.03508 17.2446 4.68314 19.0442C5.3312 20.8439 6.54144 22.3871 8.13473 23.4454C5.41868 24.4473 3.07124 26.251 1.40354 28.6173C1.31255 28.7447 1.24768 28.8889 1.21265 29.0416C1.17762 29.1942 1.17312 29.3523 1.19942 29.5066C1.22572 29.661 1.28229 29.8087 1.36588 29.9411C1.44948 30.0735 1.55843 30.1881 1.68649 30.2782C1.81454 30.3684 1.95916 30.4323 2.11202 30.4663C2.26487 30.5004 2.42295 30.5038 2.57715 30.4765C2.73135 30.4492 2.87863 30.3917 3.0105 30.3072C3.14237 30.2227 3.25624 30.113 3.34554 29.9844C4.44147 28.4253 5.89644 27.1529 7.58761 26.2745C9.27877 25.396 11.1565 24.9374 13.0622 24.9374C14.9679 24.9373 16.8456 25.3958 18.5368 26.2741C20.2281 27.1524 21.6831 28.4248 22.7791 29.9838C22.8688 30.1115 22.9828 30.2203 23.1146 30.3039C23.2464 30.3875 23.3933 30.4443 23.5471 30.4711C23.7008 30.4979 23.8583 30.4941 24.0106 30.4599C24.1629 30.4258 24.3069 30.362 24.4345 30.2721C24.5621 30.1823 24.6708 30.0682 24.7542 29.9363C24.8377 29.8044 24.8944 29.6574 24.921 29.5036C24.9476 29.3499 24.9436 29.1924 24.9093 29.0401C24.875 28.8879 24.811 28.7439 24.721 28.6164C23.0534 26.2505 20.7062 24.4471 17.9905 23.4453V23.4454ZM6.53131 16.0313C6.53131 14.7395 6.91436 13.4768 7.63202 12.4027C8.34969 11.3286 9.36973 10.4915 10.5632 9.99719C11.7566 9.50285 13.0698 9.37351 14.3367 9.62552C15.6037 9.87753 16.7674 10.4996 17.6808 11.413C18.5943 12.3264 19.2163 13.4902 19.4683 14.7571C19.7203 16.024 19.591 17.3372 19.0966 18.5307C18.6023 19.7241 17.7652 20.7441 16.6911 21.4618C15.6171 22.1795 14.3543 22.5625 13.0626 22.5625C11.331 22.5606 9.67086 21.8718 8.44644 20.6474C7.22202 19.423 6.53327 17.7629 6.53131 16.0313ZM36.5347 30.2712C36.4072 30.361 36.2632 30.4248 36.1111 30.459C35.9589 30.4931 35.8015 30.497 35.6479 30.4703C35.4942 30.4436 35.3473 30.387 35.2156 30.3035C35.0838 30.2201 34.9698 30.1115 34.8801 29.984C33.7827 28.4264 32.3275 27.155 30.6366 26.2769C28.9458 25.3987 27.0688 24.9394 25.1635 24.9375C24.8485 24.9375 24.5465 24.8124 24.3238 24.5897C24.1011 24.367 23.976 24.065 23.976 23.75C23.976 23.4351 24.1011 23.133 24.3238 22.9103C24.5465 22.6876 24.8485 22.5625 25.1635 22.5625C26.0961 22.5615 27.0178 22.3607 27.8663 21.9737C28.7149 21.5867 29.4708 21.0224 30.083 20.3188C30.6953 19.6153 31.1498 18.7888 31.4159 17.8949C31.682 17.001 31.7536 16.0605 31.6258 15.1366C31.4981 14.2127 31.1739 13.3269 30.6752 12.5388C30.1765 11.7507 29.5147 11.0785 28.7345 10.5675C27.9543 10.0565 27.0737 9.71858 26.1519 9.57638C25.2302 9.43419 24.2886 9.49106 23.3907 9.74316C23.0879 9.82713 22.7642 9.78769 22.4905 9.63349C22.2168 9.47929 22.0153 9.22289 21.9302 8.92045C21.8451 8.61801 21.8834 8.29417 22.0365 8.01986C22.1897 7.74556 22.4454 7.54313 22.7475 7.45693C24.7903 6.88058 26.9718 7.05286 28.8988 7.94273C30.8258 8.83259 32.3716 10.3815 33.2575 12.3103C34.1434 14.2391 34.3113 16.421 33.7307 18.4626C33.1502 20.5042 31.8595 22.2713 30.0913 23.4454C32.807 24.4472 35.1543 26.2506 36.8219 28.6165C37.0032 28.8741 37.0748 29.193 37.021 29.5034C36.9671 29.8137 36.7922 30.0899 36.5347 30.2712Z" fill="white"/>
</svg>
